<svg xmlns="http://www.w3.org/2000/svg" width="187" height="216" viewBox="0 0 187 216" fill="none">
  <path d="M79.7129 1H133.426V54.7126H79.7129V1Z" fill="url(#paint0_linear_438_1086)" stroke="white" stroke-linecap="square"/>
  <path d="M79.7129 54.7126H133.426V108.425H79.7129V54.7126Z" stroke="white" stroke-width="0.955741"/>
  <path d="M134 54.7126H187.713V108.425H134V54.7126Z" fill="white" stroke="white" stroke-width="0.955741"/>
  <path d="M29.2755 153.05L26.7812 160.657C26.159 162.554 26.3769 164.627 27.3801 166.354L31.4013 173.276L23.7946 170.782C21.897 170.159 19.824 170.377 18.0973 171.38L11.1754 175.402L13.6696 167.795C14.2918 165.897 14.074 163.824 13.0708 162.098L9.04959 155.176L16.6563 157.67C18.5538 158.292 20.6268 158.074 22.3536 157.071L29.2755 153.05Z" stroke="white" stroke-width="2" stroke-linejoin="bevel"/>
  <path d="M187.138 54.7126H133.425V108.425M187.138 108.425H133.425M133.425 108.425H79.7126M133.425 108.425V162.138H79.7126M79.7126 108.425H26V162.138H79.7126M79.7126 108.425V162.138" stroke="white" stroke-width="0.955741"/>
  <path d="M26 108.425H79.7126V162.138H26V108.425Z" fill="url(#paint1_linear_438_1086)" stroke="white" stroke-width="0.955741"/>
  <path d="M133.425 162.138H187.137V215.851H133.425V162.138Z" fill="url(#paint2_linear_438_1086)" stroke="white" stroke-linecap="square"/>
  <path d="M133.426 215.851V162.138H79.7129V215.851" stroke="white" stroke-width="0.955741"/>
  <defs>
    <linearGradient id="paint0_linear_438_1086" x1="79.7129" y1="0.574707" x2="133.713" y2="54.5748" gradientUnits="userSpaceOnUse">
      <stop stop-color="#B12EFF"/>
      <stop offset="1" stop-color="#722FFF"/>
    </linearGradient>
    <linearGradient id="paint1_linear_438_1086" x1="18.2857" y1="96.4253" x2="79.2857" y2="159.925" gradientUnits="userSpaceOnUse">
      <stop stop-color="#FFCB01"/>
      <stop offset="1" stop-color="#FF5993"/>
    </linearGradient>
    <linearGradient id="paint2_linear_438_1086" x1="133.425" y1="161.713" x2="187.425" y2="215.713" gradientUnits="userSpaceOnUse">
      <stop stop-color="#B12EFF"/>
      <stop offset="1" stop-color="#722FFF"/>
    </linearGradient>
  </defs>
</svg>