<svg width="24" height="24" viewBox="0 0 24 24" fill="none" xmlns="http://www.w3.org/2000/svg">
<g clip-path="url(#clip0_450_554)">
<path d="M23.094 9.91368L13.3042 9.91321C12.8719 9.91321 12.5215 10.2636 12.5215 10.6958V13.8231C12.5215 14.2553 12.8719 14.6057 13.3041 14.6057H18.8172C18.2135 16.1723 17.0867 17.4843 15.6492 18.3179L18 22.3871C21.7708 20.2063 24.0002 16.38 24.0002 12.0966C24.0002 11.4868 23.9553 11.0508 23.8653 10.5598C23.797 10.1869 23.4732 9.91368 23.094 9.91368Z" fill="#167EE6"/>
<path d="M11.9997 19.3044C9.30178 19.3044 6.94649 17.8304 5.68151 15.6492L1.6123 17.9945C3.6831 21.5834 7.56236 24.0001 11.9997 24.0001C14.1766 24.0001 16.2306 23.414 18 22.3927V22.3871L15.6493 18.3179C14.574 18.9415 13.3297 19.3044 11.9997 19.3044Z" fill="#12B347"/>
<path d="M18.0003 22.3924V22.3868L15.6495 18.3176C14.5743 18.9412 13.33 19.3042 12 19.3042V23.9999C14.1768 23.9999 16.2309 23.4138 18.0003 22.3924Z" fill="#0F993E"/>
<path d="M4.69586 12C4.69586 10.6702 5.05878 9.42613 5.68229 8.35096L1.61309 6.00562C0.586057 7.76938 0 9.81772 0 12C0 14.1823 0.586057 16.2307 1.61309 17.9945L5.68229 15.6491C5.05878 14.5739 4.69586 13.3298 4.69586 12Z" fill="#FFD500"/>
<path d="M11.9997 4.69565C13.7591 4.69565 15.3751 5.32078 16.6374 6.3606C16.9488 6.6171 17.4014 6.59859 17.6866 6.31335L19.9025 4.09758C20.2261 3.77395 20.2031 3.24422 19.8574 2.94431C17.7425 1.10967 14.9908 0 11.9997 0C7.56236 0 3.6831 2.41673 1.6123 6.00557L5.68151 8.35092C6.94649 6.16968 9.30178 4.69565 11.9997 4.69565Z" fill="#FF4B26"/>
<path d="M16.6376 6.3606C16.949 6.6171 17.4017 6.59859 17.6869 6.31335L19.9028 4.09758C20.2264 3.77395 20.2033 3.24422 19.8576 2.94431C17.7428 1.10962 14.9911 0 12 0V4.69565C13.7593 4.69565 15.3754 5.32078 16.6376 6.3606Z" fill="#D93F21"/>
</g>
<defs>
<clipPath id="clip0_450_554">
<rect width="24" height="24" fill="white"/>
</clipPath>
</defs>
</svg>
