<svg xmlns="http://www.w3.org/2000/svg" width="65" height="28" viewBox="0 0 65 28" fill="none">
  <path fill-rule="evenodd" clip-rule="evenodd" d="M1.21372 9.53184C9.2949 16.9545 19.6362 27.2636 24.7956 27.1495C28.3558 27.1696 31.5709 26.3699 34.2194 24.8056C36.868 23.2413 38.887 20.9495 40.1375 18.088C40.4298 17.2953 40.6543 16.4441 40.781 15.5482C41.3936 16.0362 42.0109 16.4891 42.6118 16.9004C45.9552 19.2063 49.6848 20.6391 52.841 20.1126C56.0463 19.5947 58.2783 17.4705 59.4557 14.7137C60.5387 11.7413 60.9858 8.39082 60.7779 4.80735L60.6999 2.41985C61.5139 3.80487 62.4526 5.15661 63.4954 6.44524C63.7444 6.75288 64.1373 6.88689 64.3731 6.74456C64.6088 6.60223 64.5981 6.23747 64.3492 5.92983C63.1592 4.45945 62.1136 2.90136 61.2471 1.30658L61.2391 1.29185L61.2304 1.27727C61.0577 0.984925 60.7306 0.779979 60.4515 0.792123L60.4483 0.79229C58.697 0.879714 57.0893 1.30726 55.7227 2.04848C55.479 2.18069 55.4768 2.54089 55.718 2.85301C55.9591 3.16513 56.3522 3.31097 56.5959 3.17876C57.4757 2.70158 58.4641 2.36507 59.53 2.17765C59.7059 8.316 59.7579 15.3053 54.73 18.0456C53.615 18.7156 52.2403 19.0355 50.7163 18.9797C49.1923 18.9238 47.5613 18.4938 45.9543 17.7241C44.3491 16.9475 42.8109 15.9239 41.3793 14.7309C41.2149 14.602 41.0514 14.4706 40.8892 14.3367C40.9521 12.6405 40.648 10.8165 39.797 8.94755C39.2082 7.59711 38.2044 5.84425 36.6492 5.19407C36.2666 5.03865 35.8879 4.99239 35.564 5.06148C35.24 5.13058 34.9862 5.31174 34.8365 5.58071C34.5172 6.20671 34.6612 7.12599 34.8535 7.93616C35.5623 10.3903 37.5253 12.7335 39.7154 14.6574C39.6427 15.4047 39.4797 16.115 39.2252 16.7747C38.1946 19.4887 36.46 21.7085 34.1365 23.2868C31.8131 24.8651 28.9539 25.7658 25.7485 25.9293C18.8741 25.1718 10.2122 14.8269 3.97934 10.1096C3.26949 9.65529 2.33015 9.21084 1.6491 8.6675C0.938408 8.09542 0.541801 8.91468 1.21372 9.53184ZM38.5374 8.46704C39.2835 10.132 39.6911 11.7896 39.7516 13.3348C38.8942 12.5272 38.0981 11.6452 37.415 10.6925C36.9093 9.96831 36.462 9.18384 36.1817 8.40522C35.9513 7.75302 35.6988 6.76759 36.0292 6.3082C36.2816 5.9292 36.8635 6.33746 37.2879 6.67094C37.8193 7.20918 38.2488 7.82657 38.5374 8.46704Z" fill="#FFCB01"/>
  <path d="M9.40492 10.4562L4.79687 8.32766C4.46227 8.19819 4.26321 7.81027 4.27083 7.5058C4.25897 7.22141 4.62151 7.14409 4.93662 7.29366L9.54468 9.42224C9.85979 9.57181 10.0783 9.93963 10.0411 10.2154C10.0334 10.5198 9.70055 10.6259 9.40492 10.4562Z" fill="#FFCB01"/>
  <path d="M3.78383 14.8303L1.63311 13.2519L1.57382 13.1945C1.26803 12.976 1.14774 12.6254 1.23414 12.3583C1.3307 12.1401 1.70341 12.1116 2.0092 12.3301C2.43562 12.6734 2.88308 12.9949 3.33053 13.3165C3.62884 13.5308 3.92714 13.7452 4.21921 13.966C4.55465 14.2132 4.69442 14.5437 4.55889 14.8021C4.49198 15.0491 4.09979 15.0977 3.78383 14.8303Z" fill="#FFCB01"/>
</svg>