<svg width="164" height="92" viewBox="0 0 164 92" fill="none" xmlns="http://www.w3.org/2000/svg">
<g filter="url(#filter0_d_417_2069)">
<rect x="21" y="20" width="104" height="32" rx="6" fill="url(#paint0_linear_417_2069)" shape-rendering="crispEdges"/>
<rect x="19.5" y="18.5" width="107" height="35" rx="7.5" stroke="black" stroke-opacity="0.1" stroke-width="3" shape-rendering="crispEdges"/>
<path d="M42.756 41L41.944 38.858H37.604L36.792 41H35.224L38.892 31.48H40.726L44.394 41H42.756ZM39.494 33.916L38.08 37.626H41.468L40.054 33.916L39.774 32.992L39.494 33.916ZM45.6607 41V31.48H47.2287V41H45.6607ZM60.0401 41H58.9061L58.7801 39.656C58.1921 40.692 57.1701 41.182 55.9521 41.182C53.3481 41.182 51.6821 39.32 51.6821 36.254C51.6821 33.202 53.3481 31.298 56.0921 31.298C57.9821 31.298 59.6061 32.334 60.0541 34.308H58.4161C58.0801 33.216 57.1841 32.614 56.0501 32.614C54.3141 32.614 53.2781 34 53.2781 36.254C53.2781 38.508 54.3281 39.866 56.0921 39.866C57.3941 39.866 58.4441 39.082 58.5421 37.262H56.2881V36.044H60.0401V41ZM68.4129 38.564C68.0069 40.3 66.7189 41.182 64.9689 41.182C62.7709 41.182 61.4269 39.712 61.4269 37.276C61.4269 34.742 62.7709 33.342 64.8989 33.342C67.0549 33.342 68.3569 34.798 68.3569 37.192V37.556H62.9529C63.0369 39.082 63.7509 39.936 64.9689 39.936C65.9209 39.936 66.5929 39.488 66.8449 38.564H68.4129ZM64.8989 34.588C63.8209 34.588 63.1769 35.274 62.9949 36.534H66.8029C66.6209 35.274 65.9629 34.588 64.8989 34.588ZM69.8573 41V33.538H71.3553V34.532C71.8593 33.734 72.6433 33.342 73.6093 33.342C75.1633 33.342 76.1293 34.252 76.1293 36.016V41H74.6453V36.324C74.6453 35.246 74.1693 34.588 73.1473 34.588C72.0273 34.588 71.3553 35.582 71.3553 36.618V41H69.8573ZM84.573 38.564C84.167 40.3 82.879 41.182 81.129 41.182C78.931 41.182 77.587 39.712 77.587 37.276C77.587 34.742 78.931 33.342 81.059 33.342C83.215 33.342 84.517 34.798 84.517 37.192V37.556H79.113C79.197 39.082 79.911 39.936 81.129 39.936C82.081 39.936 82.753 39.488 83.005 38.564H84.573ZM81.059 34.588C79.981 34.588 79.337 35.274 79.155 36.534H82.963C82.781 35.274 82.123 34.588 81.059 34.588ZM86.0174 41V33.538H87.5154V34.644C88.0054 33.748 88.7754 33.342 89.6434 33.342C89.9374 33.342 90.2174 33.412 90.3574 33.538V34.854C90.1334 34.784 89.8674 34.756 89.5594 34.756C88.1314 34.756 87.5154 35.624 87.5154 36.926V41H86.0174ZM92.6814 35.974H91.1834C91.4214 34.322 92.5554 33.342 94.4174 33.342C96.4474 33.342 97.4554 34.532 97.4554 36.268V39.18C97.4554 40.076 97.5394 40.594 97.7074 41H96.1394C96.0274 40.72 95.9854 40.328 95.9714 39.908C95.3414 40.79 94.3754 41.182 93.4794 41.182C91.9674 41.182 90.9314 40.468 90.9314 39.04C90.9314 38.018 91.4914 37.262 92.6114 36.884C93.6054 36.548 94.6134 36.464 95.9574 36.45V36.282C95.9574 35.19 95.4534 34.602 94.3054 34.602C93.3394 34.602 92.8214 35.134 92.6814 35.974ZM92.4434 38.984C92.4434 39.614 92.9614 40.006 93.7594 40.006C95.0054 40.006 95.9574 39.012 95.9574 37.808V37.472C93.0874 37.5 92.4434 38.13 92.4434 38.984ZM99.5298 38.774V34.7H98.5218V33.538H99.5298V31.816H101.028V33.538H102.638V34.7H101.028V38.69C101.028 39.544 101.266 39.95 102.316 39.95H102.61V41.042C102.442 41.126 102.092 41.182 101.672 41.182C100.216 41.182 99.5298 40.384 99.5298 38.774ZM110.386 38.564C109.98 40.3 108.692 41.182 106.942 41.182C104.744 41.182 103.4 39.712 103.4 37.276C103.4 34.742 104.744 33.342 106.872 33.342C109.028 33.342 110.33 34.798 110.33 37.192V37.556H104.926C105.01 39.082 105.724 39.936 106.942 39.936C107.894 39.936 108.566 39.488 108.818 38.564H110.386ZM106.872 34.588C105.794 34.588 105.15 35.274 104.968 36.534H108.776C108.594 35.274 107.936 34.588 106.872 34.588Z" fill="white"/>
</g>
<defs>
<filter id="filter0_d_417_2069" x="0" y="0" width="164" height="92" filterUnits="userSpaceOnUse" color-interpolation-filters="sRGB">
<feFlood flood-opacity="0" result="BackgroundImageFix"/>
<feColorMatrix in="SourceAlpha" type="matrix" values="0 0 0 0 0 0 0 0 0 0 0 0 0 0 0 0 0 0 127 0" result="hardAlpha"/>
<feOffset dx="9" dy="10"/>
<feGaussianBlur stdDeviation="13.5"/>
<feComposite in2="hardAlpha" operator="out"/>
<feColorMatrix type="matrix" values="0 0 0 0 0.164941 0 0 0 0 0.164941 0 0 0 0 0.164941 0 0 0 0.28 0"/>
<feBlend mode="normal" in2="BackgroundImageFix" result="effect1_dropShadow_417_2069"/>
<feBlend mode="normal" in="SourceGraphic" in2="effect1_dropShadow_417_2069" result="shape"/>
</filter>
<linearGradient id="paint0_linear_417_2069" x1="21" y1="20" x2="54.9449" y2="86.8864" gradientUnits="userSpaceOnUse">
<stop stop-color="#0BBEF6"/>
<stop offset="0.591203" stop-color="#2141E5"/>
<stop offset="1" stop-color="#7D15CC"/>
</linearGradient>
</defs>
</svg>
